<?xml version="1.0" standalone="no"?>
<!DOCTYPE svg PUBLIC "-//W3C//DTD SVG 20010904//EN"
 "http://www.w3.org/TR/2001/REC-SVG-20010904/DTD/svg10.dtd">
<svg version="1.0" xmlns="http://www.w3.org/2000/svg"
 width="1024.000000pt" height="1024.000000pt" viewBox="0 0 1024.000000 1024.000000"
 preserveAspectRatio="xMidYMid meet">
<metadata>
Created by potrace 1.14, written by Peter Selinger 2001-2017
</metadata>
<g transform="translate(0.000000,1024.000000) scale(0.100000,-0.100000)"
fill="#000000" stroke="none">
<path d="M1099 6519 c-15 -28 9 -54 40 -44 23 7 28 34 9 53 -18 18 -36 15 -49
-9z"/>
<path d="M6985 6324 c-1247 -73 -2551 -316 -3660 -681 -763 -251 -1561 -584
-2320 -968 -360 -182 -604 -320 -777 -438 -183 -124 -182 -134 3 -53 68 30
212 92 319 139 1014 441 1912 768 2780 1011 423 118 496 135 905 215 981 191
1789 305 2580 363 269 20 1010 17 1222 -5 474 -49 808 -141 1072 -295 433
-253 596 -706 419 -1165 -83 -215 -244 -455 -451 -673 -54 -56 -97 -107 -97
-113 0 -14 90 46 230 153 133 102 170 134 307 273 260 263 409 508 484 798 19
74 23 115 22 230 0 122 -4 151 -26 227 -72 236 -203 405 -432 554 -328 213
-784 341 -1460 410 -117 12 -282 17 -610 19 -247 1 -477 1 -510 -1z"/>
<path d="M5735 4720 c-55 -4 -118 -13 -141 -19 -95 -26 -164 -106 -183 -213
-31 -169 -21 -565 15 -660 41 -106 111 -152 256 -168 111 -13 762 -13 868 0
107 13 182 48 216 100 49 73 56 118 61 366 5 240 -5 375 -33 443 -31 75 -96
121 -199 141 -72 14 -714 22 -860 10z m690 -294 c61 -26 70 -58 70 -248 l0
-168 -31 -30 c-43 -44 -124 -53 -404 -48 -244 5 -265 9 -304 61 -18 24 -22 46
-24 140 -6 171 4 235 39 268 17 15 40 30 52 32 12 2 145 5 295 6 215 1 280 -2
307 -13z"/>
<path d="M7558 4712 l-268 -2 0 -525 0 -525 168 2 167 3 -4 383 c-3 275 -1
382 7 382 13 0 49 -47 240 -320 79 -113 182 -260 230 -328 l87 -122 280 2 280
3 3 523 2 522 -171 0 -171 0 3 -380 c2 -209 0 -382 -3 -386 -3 -3 -50 57 -104
133 -53 76 -138 197 -189 268 -50 72 -128 182 -173 246 -45 64 -90 118 -99
120 -10 2 -138 3 -285 1z"/>
<path d="M2020 4185 l0 -525 175 0 175 0 0 525 0 525 -175 0 -175 0 0 -525z"/>
<path d="M2848 4202 c-2 -280 -2 -516 0 -525 3 -15 22 -17 168 -17 l164 0 0
130 0 130 279 0 c154 0 291 -4 304 -9 32 -12 45 -51 53 -162 l7 -89 159 0 160
0 -4 153 c-4 176 -14 206 -86 242 l-42 21 35 13 c83 30 110 111 103 315 -5
153 -20 199 -79 250 -21 18 -56 38 -78 44 -27 9 -200 12 -589 12 l-552 0 -2
-508z m931 223 c32 -16 41 -39 41 -107 0 -53 -15 -93 -39 -104 -9 -4 -148 -9
-308 -12 l-293 -4 0 114 c0 63 3 118 7 121 3 4 132 7 285 7 225 0 284 -3 307
-15z"/>
<path d="M4595 4698 c-3 -7 -4 -242 -3 -523 l3 -510 173 -3 172 -2 0 525 0
525 -170 0 c-127 0 -172 -3 -175 -12z"/>
</g>
</svg>
